<?xml version="1.0" encoding="utf-8"?>
<!-- Generator: Adobe Illustrator 16.0.3, SVG Export Plug-In . SVG Version: 6.00 Build 0)  -->
<!DOCTYPE svg PUBLIC "-//W3C//DTD SVG 1.1//EN" "http://www.w3.org/Graphics/SVG/1.1/DTD/svg11.dtd">
<svg version="1.1" id="Layer_1" xmlns="http://www.w3.org/2000/svg" xmlns:xlink="http://www.w3.org/1999/xlink" x="0px" y="0px"
	 width="850.012px" height="102.46px" viewBox="-21.391 1.446 850.012 102.46"
	 enable-background="new -21.391 1.446 850.012 102.46" xml:space="preserve">
<rect y="-3" display="none" width="309.715" height="58.76"/>
<g>
	<g>
		<path fill="#FFFFFF" d="M188.062,4.569v54.888h-13.047V4.569H188.062z"/>
		<path fill="#FFFFFF" d="M290.669,46.623c1.38,1.995,4.143,2.841,6.445,2.841c4.219,0,8.209-1.995,11.434-4.605l6.291,9.209
			c-5.22,3.605-11.129,6.139-17.955,6.139c-12.583,0-21.256-10.973-21.256-20.488c0-11.741,9.36-21.561,20.718-21.561
			c8.286,0,16.037,4.757,19.723,12.124L290.669,46.623z M301.719,29.744c-1.227-1.304-3.222-1.611-5.297-1.611
			c-5.218,0-9.285,4.912-9.285,9.976v1.38L301.719,29.744z"/>
		<path fill="#FFFFFF" d="M378.596,46.623c1.382,1.995,4.144,2.841,6.446,2.841c4.221,0,8.209-1.995,11.434-4.605l6.289,9.209
			c-5.216,3.605-11.127,6.139-17.953,6.139c-12.582,0-21.257-10.973-21.257-20.488c0-11.741,9.363-21.561,20.719-21.561
			c8.289,0,16.039,4.757,19.723,12.124L378.596,46.623z M389.646,29.744c-1.226-1.304-3.221-1.611-5.295-1.611
			c-5.22,0-9.285,4.912-9.285,9.976v1.38L389.646,29.744z"/>
		<path fill="#FFFFFF" d="M504.587,46.623c1.38,1.995,4.142,2.841,6.446,2.841c4.223,0,8.21-1.995,11.432-4.605l6.291,9.209
			c-5.215,3.605-11.125,6.139-17.958,6.139c-12.584,0-21.253-10.973-21.253-20.488c0-11.741,9.36-21.561,20.717-21.561
			c8.287,0,16.037,4.757,19.722,12.124L504.587,46.623z M515.637,29.744c-1.229-1.304-3.226-1.611-5.295-1.611
			c-5.22,0-9.287,4.912-9.287,9.976v1.38L515.637,29.744z"/>
		<path fill="#FFFFFF" d="M543.161,24.141h0.156c3.069-4.604,6.982-5.984,10.284-5.984c10.819,0,14.426,6.906,14.426,16.729V59.46
			h-11.972v-23.73c0-4.603-2.38-6.828-5.986-6.828c-3.601,0-5.986,2.225-5.986,6.828v23.73h-11.969V19.385l11.047-0.23V24.141
			L543.161,24.141z"/>
		<path fill="#FFFFFF" d="M203.601,24.141h0.152c3.068-4.604,6.982-5.984,10.281-5.984c10.818,0,14.428,6.906,14.428,16.729V59.46
			H216.49v-23.73c0-4.603-2.378-6.828-5.984-6.828c-3.605,0-5.983,2.225-5.983,6.828v23.73H192.55V19.385l11.051-0.23V24.141z"/>
		<path fill="#FFFFFF" d="M417.199,24.141h0.151c3.071-4.604,6.984-5.984,10.284-5.984c10.817,0,14.427,6.906,14.427,16.729V59.46
			h-11.97v-23.73c0-4.603-2.378-6.828-5.986-6.828c-3.606,0-5.984,2.225-5.984,6.828v23.73h-11.97V19.385l11.048-0.23V24.141
			L417.199,24.141z"/>
		<path fill="#FFFFFF" d="M643.487,20.228c-2.992-2.608-5.295-3.992-9.362-3.992c-2.298,0-5.753,1.381-5.753,4.144
			c0,8.363,23.553,2.917,23.553,22.251c0,11.818-9.204,17.57-20.179,17.57c-6.524,0-13.274-1.919-18.264-6.216l7.827-9.974
			c2.457,2.84,5.987,4.22,9.895,4.22c2.688,0,6.911-1.307,6.911-4.681c0-8.209-23.558-3.301-23.558-22.176
			c0-10.437,9.664-16.267,19.183-16.267c6.061,0,12.201,2.225,16.88,6.061L643.487,20.228z"/>
		<path fill="#FFFFFF" d="M648.182,29.467l-0.038-9.978h6.332v-9.227l11.972-3.202v12.428h6.83v9.978h-6.83v13.812
			c0,3.913,2.99,4.989,6.363,4.989c1.078,0,2.615-0.23,3.148-0.461l-0.051,11.817c-0.532,0.074-4.63,0.153-5.246,0.153
			c-10.584,0-16.187-5.065-16.187-15.576V29.47h-6.294V29.467z"/>
		<path fill="#FFFFFF" d="M568.812,29.467l-0.04-9.978h6.331v-9.227l11.97-3.202v12.428h6.828v9.978h-6.828v13.812
			c0,3.913,2.991,4.989,6.371,4.989c1.072,0,2.607-0.23,3.142-0.461l-0.049,11.817c-0.536,0.074-4.63,0.153-5.246,0.153
			c-10.586,0-16.188-5.065-16.188-15.576V29.47h-6.29V29.467z"/>
		<path fill="#FFFFFF" d="M701.119,19.154h11.971v40.303h-11.05v-5.851h-0.152c-2.303,5.219-6.985,6.6-10.284,6.6
			c-10.819,0-14.429-6.906-14.429-16.729V19.154h11.971v23.479c0,4.604,2.381,6.83,5.986,6.83c3.607,0,5.987-2.226,5.987-6.83
			V19.154z"/>
		<path fill="#FFFFFF" d="M474.71,4.569h12.305l0.048,54.787l-11.58,0.102v-4.93h-0.156c-2.224,4.145-6.602,5.679-11.202,5.679
			c-11.278,0-20.104-9.208-20.104-20.488c0-11.435,8.365-21.561,20.104-21.561c3.76,0,7.979,1.379,10.586,3.992V4.569L474.71,4.569z
			 M465.582,49.464c5.37,0,9.59-4.758,9.59-10.284c0-5.524-4.22-10.281-9.59-10.281c-5.373,0-9.592,4.757-9.592,10.281
			C455.99,44.706,460.208,49.464,465.582,49.464z"/>
		<path fill="#FFFFFF" d="M261.349,4.569h12.301l0.049,54.787l-11.582,0.102v-4.93h-0.153c-2.226,4.145-6.599,5.679-11.202,5.679
			c-11.28,0-20.107-9.208-20.107-20.488c0-11.435,8.363-21.561,20.107-21.561c3.758,0,7.978,1.379,10.588,3.992V4.569z
			 M252.217,49.464c5.37,0,9.593-4.758,9.593-10.284c0-5.524-4.223-10.281-9.593-10.281c-5.372,0-9.593,4.757-9.593,10.281
			C242.625,44.706,246.845,49.464,252.217,49.464z"/>
		<path fill="#FFFFFF" d="M330.791,74.665h-12.302l-0.046-55.907l11.58-0.099v4.928h0.154c2.229-4.143,6.598-5.677,11.203-5.677
			c11.281,0,20.107,9.208,20.107,20.488c0,11.434-8.368,21.56-20.107,21.56c-3.76,0-7.979-1.379-10.589-3.988L330.791,74.665
			L330.791,74.665z M339.92,28.652c-5.372,0-9.591,4.758-9.591,10.283c0,5.527,4.219,10.284,9.591,10.284
			c5.373,0,9.592-4.757,9.592-10.284C349.512,33.41,345.293,28.652,339.92,28.652z"/>
		<path fill="#FFFFFF" d="M745.539,4.569h12.299l0.048,54.787l-11.58,0.102v-4.93h-0.153c-2.227,4.145-6.6,5.679-11.202,5.679
			c-11.282,0-20.104-9.208-20.104-20.488c0-11.435,8.362-21.561,20.104-21.561c3.758,0,7.979,1.379,10.589,3.992V4.569z
			 M736.407,49.464c5.375,0,9.593-4.758,9.593-10.284c0-5.524-4.218-10.281-9.593-10.281c-5.37,0-9.594,4.757-9.594,10.281
			C726.817,44.706,731.037,49.464,736.407,49.464z"/>
	</g>
	<g>
		<path fill="#FFD779" d="M4.518,4.618h25.627c9.436-0.152,19.793,2.302,19.793,13.733c0,4.912-2.917,8.901-7.21,11.05
			c5.83,1.687,9.435,6.75,9.435,12.966c0,13.042-9.59,17.034-21.33,17.034H4.518V4.618z M18.789,26.176h11.049
			c2.456,0,5.831-1.306,5.831-5.215c0-3.99-2.84-5.296-5.831-5.296H18.789V26.176z M18.789,47.967h11.433
			c4.527,0,7.671-1.609,7.671-6.137c0-4.834-3.375-6.446-7.671-6.446H18.789V47.967z"/>
		<path fill="#FFD779" d="M81.627,38.991v20.407H67.356V38.991L47.406,4.618h16.188l10.896,22.25l10.896-22.25h16.188L81.627,38.991
			z"/>
		<path fill="#FFD779" d="M152.293,36.765c0,15.884-7.287,23.787-23.86,23.787c-16.572,0-23.863-7.903-23.863-23.787V4.618h14.271
			v32.991c0,7.061,2.608,10.666,9.592,10.666c6.98,0,9.589-3.605,9.589-10.666V4.618h14.271V36.765z"/>
	</g>
	<g>
		<path fill="#FFFFFF" d="M781.09,43.888l9.782-24.15l11.841,3.001l-23.917,53.51l-12.861-1.265l8.756-17.597l-15.465-34.728
			l11.998-2.922L781.09,43.888z"/>
	</g>
</g>
<g>
	<path fill="#BCD3EA" d="M330.934,81.491c0-5.857,1.34-10.526,4.015-14.012c2.679-3.485,6.256-5.226,10.738-5.226
		s8.062,1.736,10.74,5.204c2.678,3.464,4.013,8.146,4.013,14.036c0,5.874-1.337,10.559-4.013,14.053
		c-2.679,3.488-6.258,5.236-10.74,5.236c-4.463,0-8.04-1.745-10.724-5.236C332.277,92.05,330.934,87.367,330.934,81.491z
		 M335.114,81.491c0,4.936,0.936,8.782,2.806,11.532c1.872,2.754,4.459,4.132,7.768,4.132c3.307,0,5.897-1.378,7.768-4.132
		c1.872-2.75,2.808-6.597,2.808-11.532c0-4.952-0.936-8.802-2.808-11.556c-1.87-2.755-4.461-4.13-7.768-4.13
		c-3.309,0-5.896,1.375-7.768,4.13C336.049,72.689,335.114,76.539,335.114,81.491z"/>
	<path fill="#BCD3EA" d="M367.819,100.151V62.862h5.866l17.122,29.081V62.859h3.88v37.285h-3.2l-19.814-33.006v33.006h-3.854
		V100.151z"/>
	<path fill="#BCD3EA" d="M404.934,100.151V62.862h4.231v33.735h16.642v3.554H404.934z"/>
	<path fill="#BCD3EA" d="M431.801,100.151V62.862h4.18v37.289H431.801z"/>
	<path fill="#BCD3EA" d="M446.254,100.151V62.862h5.865l17.125,29.081V62.859h3.88v37.285h-3.198l-19.818-33.006v33.006h-3.854
		V100.151z"/>
	<path fill="#BCD3EA" d="M483.115,100.151V62.862h22.008v3.525h-17.904v12.463h12.689v3.447h-12.689v14.3h18.784v3.554H483.115z"/>
	<path fill="#BCD3EA" d="M552.91,88.97c-0.903,3.928-2.454,6.878-4.644,8.85c-2.19,1.973-5.025,2.958-8.496,2.958
		c-4.583,0-8.12-1.672-10.615-5.024c-2.49-3.349-3.739-8.104-3.739-14.263c0-5.994,1.257-10.697,3.764-14.115
		c2.511-3.417,5.931-5.125,10.263-5.125c3.457,0,6.26,0.938,8.409,2.807c2.146,1.871,3.606,4.646,4.381,8.321l-3.755,0.979
		c-0.587-2.783-1.63-4.916-3.124-6.396c-1.49-1.479-3.339-2.217-5.538-2.217c-3.272,0-5.797,1.375-7.567,4.13
		c-1.771,2.754-2.656,6.671-2.656,11.761c0,4.968,0.896,8.801,2.697,11.506c1.795,2.701,4.34,4.054,7.628,4.054
		c2.435,0,4.454-0.786,6.055-2.356c1.604-1.568,2.656-3.805,3.159-6.708L552.91,88.97z"/>
	<path fill="#BCD3EA" d="M556.559,81.491c0-5.857,1.34-10.526,4.019-14.012c2.674-3.485,6.255-5.226,10.74-5.226
		c4.479,0,8.06,1.736,10.739,5.204c2.677,3.464,4.017,8.146,4.017,14.036c0,5.874-1.34,10.559-4.017,14.053
		c-2.68,3.488-6.257,5.236-10.739,5.236c-4.465,0-8.039-1.745-10.727-5.236C557.903,92.05,556.559,87.367,556.559,81.491z
		 M560.741,81.491c0,4.936,0.936,8.782,2.81,11.532c1.869,2.754,4.461,4.132,7.768,4.132c3.306,0,5.894-1.378,7.765-4.132
		c1.875-2.75,2.808-6.597,2.808-11.532c0-4.952-0.935-8.802-2.808-11.556c-1.871-2.752-4.459-4.13-7.765-4.13
		c-3.307,0-5.898,1.375-7.768,4.13C561.676,72.689,560.741,76.539,560.741,81.491z"/>
	<path fill="#BCD3EA" d="M593.349,62.859h4.057v24.047c0,1.675,0.074,2.941,0.228,3.788c0.152,0.848,0.404,1.608,0.753,2.28
		c0.691,1.34,1.763,2.385,3.226,3.121c1.457,0.738,3.172,1.106,5.134,1.106c1.999,0,3.73-0.368,5.19-1.106s2.534-1.781,3.223-3.121
		c0.354-0.705,0.606-1.498,0.756-2.379c0.15-0.881,0.228-2.339,0.228-4.367V62.862h4.077v24.699c0,4.313-1.142,7.598-3.436,9.846
		c-2.289,2.245-5.637,3.37-10.032,3.37c-4.416,0-7.75-1.108-10.009-3.335c-2.259-2.228-3.39-5.519-3.39-9.884V62.859H593.349z"/>
	<path fill="#BCD3EA" d="M630.11,100.151V62.862h10.451c5.217,0,9.008,0.783,11.367,2.353c2.356,1.57,3.536,4.067,3.536,7.491
		c0,2.434-0.643,4.448-1.927,6.041c-1.284,1.595-3.219,2.761-5.803,3.502l8.764,17.902h-4.533l-8.21-16.923h-9.593v16.923H630.11z
		 M640.561,66.335h-6.398v13.444h6.245c3.84,0,6.616-0.525,8.319-1.585c1.704-1.057,2.555-2.761,2.555-5.112
		c0-2.499-0.758-4.249-2.275-5.249C647.488,66.835,644.67,66.335,640.561,66.335z"/>
	<path fill="#BCD3EA" d="M660.576,90.81l3.902-1.284c0.675,2.385,1.822,4.262,3.452,5.628c1.626,1.367,3.509,2.052,5.639,2.052
		c2.37,0,4.259-0.591,5.668-1.771c1.409-1.187,2.113-2.759,2.113-4.724c0-1.158-0.206-2.166-0.629-3.021
		c-0.418-0.856-1.051-1.568-1.886-2.14c-1.206-0.804-3.297-1.743-6.271-2.817c-1.058-0.388-1.854-0.681-2.396-0.882
		c-3.138-1.225-5.348-2.575-6.629-4.055c-1.285-1.477-1.928-3.339-1.928-5.59c0-3.005,0.996-5.413,2.984-7.227
		c1.987-1.812,4.636-2.72,7.945-2.72c2.885,0,5.328,0.782,7.339,2.344c2.007,1.562,3.445,3.819,4.318,6.771l-3.725,1.084
		c-0.604-2.197-1.617-3.874-3.046-5.023c-1.429-1.15-3.199-1.727-5.313-1.727c-2,0-3.592,0.552-4.775,1.652
		c-1.18,1.098-1.773,2.578-1.773,4.443c0,0.871,0.197,1.678,0.594,2.416c0.392,0.738,1.01,1.443,1.85,2.116
		c0.818,0.639,2.728,1.503,5.712,2.593c0.96,0.335,1.699,0.604,2.22,0.803c3.541,1.345,5.99,2.813,7.352,4.407
		c1.358,1.597,2.039,3.702,2.039,6.318c0,3.106-1.053,5.603-3.159,7.49c-2.108,1.889-4.908,2.832-8.397,2.832
		c-3.343,0-6.12-0.839-8.335-2.517C663.218,96.581,661.601,94.101,660.576,90.81z"/>
	<path fill="#BCD3EA" d="M692.704,100.151V62.862h22.01v3.525h-17.905v12.463h12.69v3.447h-12.69v14.3h18.784v3.554H692.704z"/>
	<path fill="#BCD3EA" d="M718.888,90.81l3.9-1.284c0.676,2.385,1.822,4.262,3.452,5.628c1.626,1.367,3.511,2.052,5.638,2.052
		c2.369,0,4.255-0.591,5.665-1.771c1.411-1.187,2.116-2.759,2.116-4.724c0-1.158-0.209-2.166-0.628-3.021
		c-0.42-0.856-1.049-1.568-1.889-2.14c-1.208-0.804-3.299-1.743-6.267-2.817c-1.059-0.388-1.857-0.681-2.396-0.882
		c-3.138-1.225-5.349-2.575-6.629-4.055c-1.287-1.477-1.93-3.339-1.93-5.59c0-3.005,0.997-5.413,2.984-7.227
		c1.989-1.812,4.636-2.72,7.945-2.72c2.887,0,5.331,0.782,7.339,2.344c2.004,1.562,3.445,3.819,4.317,6.771l-3.729,1.084
		c-0.6-2.197-1.617-3.874-3.044-5.023c-1.425-1.15-3.198-1.727-5.31-1.727c-2,0-3.592,0.552-4.775,1.652
		c-1.178,1.098-1.773,2.578-1.773,4.443c0,0.871,0.198,1.678,0.596,2.416c0.393,0.738,1.01,1.443,1.848,2.116
		c0.82,0.639,2.728,1.503,5.718,2.593c0.957,0.335,1.693,0.604,2.217,0.803c3.543,1.345,5.994,2.813,7.355,4.407
		c1.354,1.597,2.035,3.702,2.035,6.318c0,3.106-1.054,5.603-3.162,7.49c-2.105,1.889-4.902,2.832-8.396,2.832
		c-3.34,0-6.115-0.839-8.333-2.517C721.535,96.581,719.917,94.101,718.888,90.81z"/>
</g>
</svg>
